#!OML:ASF H:\Pregnant\Project 1\Capture day 1\Session 1\femalepreg.ASF
:FULLY-SPECIFIED
:DEGREES
1351
root 6.11978 2.20784 16.8138 -66.7612 3.78413 -104.635
lowerback -3.54049 3.31654 -3.41556
upperback 1.746 4.60703 5.75747
thorax 3.05634 2.25093 8.22667
lowerneck -11.6064 1.10505 2.3831
upperneck 30.8045 -0.251106 7.72138
head 12.0774 1.36104 2.51559
rclavicle 0 -2.38542e-015
rhumerus -22.9944 57.3777 -90.0072
rradius 88.8143
rwrist 23.3308
rhand -67.3419 134.15
rfingers 7.12502
rthumb -39.1092 -560.361
lclavicle 0 -2.38542e-015
lhumerus 95.1536 -3.92386 41.0287
lradius 30.2152
lwrist 11.6239
lhand 21.5566 21.1478
lfingers 7.12502
lthumb 45.9823 44.2498
rfemur -60.4496 -5.91858 41.9849
rtibia 99.7327
rfoot 5.16733 4.57666
rtoes -24.8232
lfemur -70.1644 -23.9204 -25.7396
ltibia 121.52
lfoot 27.9349 14.0695
ltoes 79.2447
1352
root 6.12054 2.20826 16.8127 -66.7687 3.78707 -104.64
lowerback -3.54037 3.31311 -3.39322
upperback 1.7534 4.60082 5.73938
thorax 3.06812 2.24743 8.19443
lowerneck -11.6187 1.09849 2.36383
upperneck 30.7959 -0.262817 7.73823
head 12.0768 1.3554 2.52362
rclavicle -4.45278e-014 -3.73715e-014
rhumerus -22.9688 57.3862 -90.0245
rradius 88.81
rwrist 23.3074
rhand -67.3131 134.351
rfingers 7.12502
rthumb -39.0821 -560.153
lclavicle -4.45278e-014 -3.73715e-014
lhumerus 95.1549 -3.9194 41.0017
lradius 30.2251
lwrist 11.61
lhand 21.5522 21.1412
lfingers 7.12502
lthumb 45.9782 44.2448
rfemur -60.4329 -5.92923 41.9797
rtibia 99.7177
rfoot 5.1968 4.57995
rtoes -24.8186
lfemur -70.1533 -23.8443 -25.7406
ltibia 121.509
lfoot 27.9495 14.0089
ltoes 79.3501
1353
root 6.1211 2.20862 16.8116 -66.7782 3.78839 -104.644
lowerback -3.53638 3.31066 -3.37189
upperback 1.76128 4.59603 5.72347
thorax 3.0777 2.24475 8.1649
lowerneck -11.6302 1.09159 2.34818
upperneck 30.7875 -0.273823 7.74798
head 12.0761 1.34956 2.5284
rclavicle 3.18055e-014 4.69132e-014
rhumerus -22.9429 57.3945 -90.0393
rradius 88.8038
rwrist 23.2871
rhand -67.3096 134.644
rfingers 7.12502
rthumb -39.0788 -559.859
lclavicle 3.18055e-014 4.69132e-014
lhumerus 95.1549 -3.91587 40.9789
lradius 30.2333
lwrist 11.5942
lhand 21.5491 21.1333
lfingers 7.12502
lthumb 45.9753 44.2382
rfemur -60.4147 -5.93917 41.9754
rtibia 99.7031
rfoot 5.22401 4.5855
rtoes -24.8102
lfemur -70.1405 -23.7687 -25.7422
ltibia 121.498
lfoot 27.9661 13.9433
ltoes 79.453
1354
root 6.12148 2.20894 16.8105 -66.7884 3.7875 -104.646
lowerback -3.5288 3.30872 -3.34913
upperback 1.76886 4.59185 5.70839
thorax 3.08489 2.24253 8.13516
lowerneck -11.6436 1.08521 2.3382
upperneck 30.7787 -0.282947 7.74827
head 12.0757 1.34399 2.52885
rclavicle 5.40694e-014 1.04163e-013
rhumerus -22.918 57.4028 -90.0544
rradius 88.7984
rwrist 23.268
rhand -67.3137 134.865
rfingers 7.12502
rthumb -39.0826 -559.638
lclavicle 5.40694e-014 1.04163e-013
lhumerus 95.1551 -3.91046 40.9556
lradius 30.2406
lwrist 11.5796
lhand 21.5611 21.1327
lfingers 7.12502
lthumb 45.9865 44.2328
rfemur -60.3971 -5.94863 41.9734
rtibia 99.6881
rfoot 5.24984 4.59299
rtoes -24.804
lfemur -70.1275 -23.6918 -25.7413
ltibia 121.488
lfoot 27.9787 13.8851
ltoes 79.5533
1355
root 6.12166 2.20916 16.8095 -66.7974 3.78614 -104.648
lowerback -3.52109 3.30657 -3.32508
upperback 1.77657 4.58733 5.69276
thorax 3.09234 2.24015 8.10409
lowerneck -11.6587 1.08094 2.33077
upperneck 30.7679 -0.288829 7.74553
head 12.0746 1.33974 2.52807
rclavicle -5.08889e-014 -4.37326e-014
rhumerus -22.892 57.4117 -90.0699
rradius 88.791
rwrist 23.2555
rhand -67.3097 135.045
rfingers 7.12502
rthumb -39.0788 -559.458
lclavicle -5.08889e-014 -4.37326e-014
lhumerus 95.1574 -3.90195 40.9306
lradius 30.2459
lwrist 11.5713
lhand 21.5833 21.139
lfingers 7.12502
lthumb 46.0071 44.2306
rfemur -60.3836 -5.95726 41.9726
rtibia 99.6751
rfoot 5.27552 4.5987
rtoes -24.7978
lfemur -70.1182 -23.6187 -25.7394
ltibia 121.479
lfoot 27.9904 13.8285
ltoes 79.6514
1356
root 6.12166 2.20929 16.8085 -66.8071 3.78452 -104.647
lowerback -3.51241 3.30561 -3.30305
upperback 1.78527 4.58454 5.67824
thorax 3.09973 2.23861 8.07541
lowerneck -11.6741 1.07604 2.32712
upperneck 30.7561 -0.294932 7.73667
head 12.0732 1.33498 2.52422
rclavicle 2.22639e-014 -5.1684e-014
rhumerus -22.8659 57.4196 -90.0814
rradius 88.7857
rwrist 23.2421
rhand -67.3131 135.448
rfingers 7.12502
rthumb -39.082 -559.056
lclavicle 2.22639e-014 -5.1684e-014
lhumerus 95.1632 -3.89324 40.91
lradius 30.2488
lwrist 11.5652
lhand 21.6173 21.1544
lfingers 7.12502
lthumb 46.0387 44.2328
rfemur -60.3711 -5.96441 41.9717
rtibia 99.6635
rfoot 5.3005 4.60305
rtoes -24.7868
lfemur -70.1089 -23.5486 -25.739
ltibia 121.471
lfoot 27.9998 13.7778
ltoes 79.7474
1357
root 6.12149 2.20934 16.8076 -66.8148 3.7822 -104.646
lowerback -3.50613 3.30558 -3.28185
upperback 1.79323 4.58311 5.66454
thorax 3.10737 2.23777 8.04832
lowerneck -11.6849 1.07124 2.3254
upperneck 30.7387 -0.299854 7.72384
head 12.0685 1.3302 2.51835
rclavicle -1.27222e-014 1.82882e-014
rhumerus -22.8448 57.4239 -90.0936
rradius 88.7821
rwrist 23.2243
rhand -67.309 135.961
rfingers 7.12502
rthumb -39.0782 -558.541
lclavicle -1.27222e-014 1.82882e-014
lhumerus 95.1717 -3.88812 40.8965
lradius 30.2486
lwrist 11.5544
lhand 21.6655 21.1792
lfingers 7.12502
lthumb 46.0833 44.239
rfemur -60.3623 -5.96971 41.9722
rtibia 99.6534
rfoot 5.32355 4.60461
rtoes -24.7715
lfemur -70.1036 -23.4848 -25.7369
ltibia 121.463
lfoot 28.0071 13.7327
ltoes 79.8415
1358
root 6.12124 2.20935 16.8067 -66.8211 3.77994 -104.643
lowerback -3.50219 3.30582 -3.25895
upperback 1.80178 4.58196 5.64929
thorax 3.11715 2.237 8.01882
lowerneck -11.6939 1.06706 2.32305
upperneck 30.7173 -0.305012 7.71595
head 12.0618 1.32575 2.51426
rclavicle -6.99722e-014 -5.725e-014
rhumerus -22.8245 57.4276 -90.1075
rradius 88.7797
rwrist 23.2108
rhand -67.3022 136.604
rfingers 7.12502
rthumb -39.0718 -557.897
lclavicle -6.99722e-014 -5.725e-014
lhumerus 95.1818 -3.88479 40.8871
lradius 30.2463
lwrist 11.5385
lhand 21.708 21.2026
lfingers 7.12502
lthumb 46.1227 44.2458
rfemur -60.3557 -5.97245 41.9731
rtibia 99.6441
rfoot 5.34453 4.60353
rtoes -24.7514
lfemur -70.1005 -23.4195 -25.7344
ltibia 121.456
lfoot 28.0116 13.6952
ltoes 79.9344
1359
root 6.12089 2.20933 16.8058 -66.8268 3.7768 -104.641
lowerback -3.49974 3.30637 -3.23438
upperback 1.81117 4.58115 5.63368
thorax 3.12873 2.23637 7.98817
lowerneck -11.7035 1.06309 2.31909
upperneck 30.6952 -0.310872 7.71281
head 12.0551 1.32141 2.51214
rclavicle 2.8625e-014 -1.98785e-014
rhumerus -22.8048 57.4293 -90.1226
rradius 88.7783
rwrist 23.1983
rhand -67.3187 137.516
rfingers 7.12502
rthumb -39.0874 -556.989
lclavicle 2.8625e-014 -1.98785e-014
lhumerus 95.1937 -3.87663 40.869
lradius 30.2461
lwrist 11.5305
lhand 21.7445 21.2242
lfingers 7.12502
lthumb 46.1567 44.2532
rfemur -60.3505 -5.97334 41.9754
rtibia 99.6354
rfoot 5.36615 4.5984
rtoes -24.723
lfemur -70.0997 -23.3586 -25.7305
ltibia 121.448
lfoot 28.0021 13.6923
ltoes 80.0273
1360
root 6.12053 2.20935 16.8047 -66.8338 3.77392 -104.637
lowerback -3.49571 3.30625 -3.20567
upperback 1.82148 4.57915 5.6152
thorax 3.14111 2.23516 7.95194
lowerneck -11.7126 1.061 2.3147
upperneck 30.671 -0.314063 7.71066
head 12.0473 1.31829 2.51075
rclavicle -9.22361e-014 -8.74653e-015
rhumerus -22.7867 57.4306 -90.1439
rradius 88.7753
rwrist 23.1992
rhand -67.3321 138.304
rfingers 7.12502
rthumb -39.1 -556.204
lclavicle -9.22361e-014 -8.74653e-015
lhumerus 95.2039 -3.86237 40.8369
lradius 30.2496
lwrist 11.5294
lhand 21.7694 21.2422
lfingers 7.12502
lthumb 46.1797 44.2615
rfemur -60.3435 -5.97267 41.9775
rtibia 99.6262
rfoot 5.38711 4.59073
rtoes -24.6923
lfemur -70.0964 -23.2931 -25.7272
ltibia 121.437
lfoot 27.9956 13.6876
ltoes 80.1184
1361
root 6.12017 2.20939 16.8035 -66.8414 3.77149 -104.633
lowerback -3.49027 3.30544 -3.17236
upperback 1.83208 4.57595 5.59375
thorax 3.15375 2.23339 7.90972
lowerneck -11.7209 1.06106 2.30466
upperneck 30.6444 -0.315833 7.72
head 12.0383 1.31659 2.5148
rclavicle 4.77083e-014 3.33958e-014
rhumerus -22.7686 57.4307 -90.1711
rradius 88.772
rwrist 23.1994
rhand -67.3278 138.603
rfingers 7.12502
rthumb -39.096 -555.904
lclavicle 4.77083e-014 3.33958e-014
lhumerus 95.2129 -3.84213 40.7896
lradius 30.2568
lwrist 11.5398
lhand 21.7748 21.2537
lfingers 7.12502
lthumb 46.1847 44.2709
rfemur -60.3354 -5.97183 41.9792
rtibia 99.6161
rfoot 5.40802 4.58081
rtoes -24.658
lfemur -70.0915 -23.2197 -25.7238
ltibia 121.425
lfoot 27.9924 13.6791
ltoes 80.2082
1362
root 6.1198 2.20946 16.802 -66.8508 3.76888 -104.629
lowerback -3.48187 3.30472 -3.13798
upperback 1.84306 4.57278 5.57213
thorax 3.1652 2.23173 7.86652
lowerneck -11.7305 1.0612 2.29323
upperneck 30.6195 -0.317929 7.73181
head 12.0304 1.315 2.52009
rclavicle -4.77083e-014 -5.56597e-014
rhumerus -22.7519 57.4289 -90.2
rradius 88.7705
rwrist 23.1952
rhand -67.2892 138.308
rfingers 7.12502
rthumb -39.0595 -556.189
lclavicle -4.77083e-014 -5.56597e-014
lhumerus 95.2212 -3.82079 40.7407
lradius 30.265
lwrist 11.5509
lhand 21.7775 21.2634
lfingers 7.12502
lthumb 46.1872 44.2796
rfemur -60.3248 -5.97111 41.9815
rtibia 99.6045
rfoot 5.42935 4.56833
rtoes -24.6222
lfemur -70.0832 -23.1401 -25.7212
ltibia 121.411
lfoot 27.996 13.6558
ltoes 80.2957
1363
root 6.11943 2.20956 16.8005 -66.8605 3.76702 -104.625
lowerback -3.47265 3.30384 -3.10342
upperback 1.85355 4.5694 5.55014
thorax 3.17573 2.23 7.82273
lowerneck -11.7405 1.06171 2.27797
upperneck 30.5966 -0.320282 7.74994
head 12.0233 1.31376 2.52852
rclavicle -4.77083e-014 -5.96354e-014
rhumerus -22.7368 57.4271 -90.2302
rradius 88.7688
rwrist 23.1831
rhand -67.2419 137.933
rfingers 7.12502
rthumb -39.0149 -556.551
lclavicle -4.77083e-014 -5.96354e-014
lhumerus 95.2286 -3.80244 40.6971
lradius 30.2722
lwrist 11.5561
lhand 21.7773 21.2695
lfingers 7.12502
lthumb 46.187 44.2858
rfemur -60.3145 -5.97275 41.9837
rtibia 99.5923
rfoot 5.45277 4.5539
rtoes -24.5843
lfemur -70.0747 -23.0582 -25.719
ltibia 121.396
lfoot 28.0103 13.6105
ltoes 80.3811
